# xmcd CD database file
#
# Track frame offsets:
#	150
#	17840
#	34187
#	49862
#	64262
#	78207
#	93907
#	109940
#	124577
#	135517
#	151482
#	164882
#	178940
#	193757
#	207957
#	223577
#	239157
#	249507
#	267290
#	285697
#	297000
#	309212
#	325357
#	337267
#
# Disc length: 4736 seconds
#
# Revision: 4
# Processed by: cddbd v1.5.2PL0 Copyright (c) Steve Scherf et al.
# Submitted via: CDex 1.70beta2
#
DISCID=73127e18
DTITLE=Various Artist - Steppin' Country 4
DYEAR=2000
DGENRE=Country
TTITLE0=Jessica Jay - Chilly Cha Cha
TTITLE1=Ty Herndon - Steam
TTITLE2=Collin Raye - She's All That
TTITLE3=Yankee Gray - Another Nine Minutes
TTITLE4=James Bonamy - The Heart Stops The Clock
TTITLE5=Joe Diffie - The Quittin' Kind
TTITLE6=Danni Leigh - I Don't Feel That Way Anymore
TTITLE7=Ricochet - I Can't Dance
TTITLE8=Dolly Parton, Tammy Wynette, Loretta Lynn - Silver Threads And Golden Needles
TTITLE9=The Kinleys - She Ain't The Girl For You
TTITLE10=Darryl and Don Ellis - Like A Rock to A Window
TTITLE11=Yankee Gray - Untaimed
TTITLE12=Sweethearts Of The Rodeo - Come Se Dice (I Love You)
TTITLE13=Shelby Lynne - Under Your Spell Again
TTITLE14=Darrl and Don Ellis - I Want To Be The First One
TTITLE15=Patty Loveless - Tear Stained Letter
TTITLE16=Ty Herndon - In Your Face
TTITLE17=Deryl Dodd - Movin' Out To The Country
TTITLE18=James House - Days Gone By
TTITLE19=Ricky Van Shelton - I've Cried My Last Tear For You
TTITLE20=Rodney Crowell - It Don't Get Better Than This
TTITLE21=Montgomery Gentry - All Night Long
TTITLE22=Dixiana - That's What I'm Working On Tonight
TTITLE23=Joy White - Cold Day In July
EXTD=YEAR: 2000
EXTT0=
EXTT1=
EXTT2=
EXTT3=
EXTT4=
EXTT5=
EXTT6=
EXTT7=
EXTT8=
EXTT9=
EXTT10=
EXTT11=
EXTT12=
EXTT13=
EXTT14=
EXTT15=
EXTT16=
EXTT17=
EXTT18=
EXTT19=
EXTT20=
EXTT21=
EXTT22=
EXTT23=
PLAYORDER=
